<svg xmlns:xlink="http://www.w3.org/1999/xlink" xmlns="http://www.w3.org/2000/svg">
    <symbol id="UP_DOWN" viewBox="0 0 94.859 94.858">
        <path fill="currentColor" d="M17.312,41.757h60.236c0.77,0,1.469-0.44,1.802-1.133c0.334-0.691,0.241-1.514-0.237-2.114L48.994,0.753C48.614,0.277,48.039,0,47.431,0s-1.184,0.277-1.563,0.753L15.748,38.51c-0.479,0.601-0.572,1.423-0.238,2.114C15.843,41.317,16.542,41.757,17.312,41.757z"/>
        <path fill="currentColor" d="M77.547,53.102H17.312c-0.769,0-1.469,0.439-1.802,1.133c-0.334,0.691-0.241,1.514,0.238,2.113l30.119,37.758c0.38,0.476,0.955,0.753,1.563,0.753s1.184-0.277,1.563-0.753L79.11,56.348c0.479-0.601,0.571-1.422,0.237-2.113C79.016,53.541,78.317,53.102,77.547,53.102z"/>
    </symbol>

    <symbol id="REFRESH" viewBox="0 0 460.801 460.801">
        <path stroke="currentColor" d="M231.298,17.068c-57.746-0.156-113.278,22.209-154.797,62.343V17.067C76.501,7.641,68.86,0,59.434,0S42.368,7.641,42.368,17.067v102.4c-0.002,7.349,4.701,13.874,11.674,16.196l102.4,34.133c8.954,2.979,18.628-1.866,21.606-10.82c2.979-8.954-1.866-18.628-10.82-21.606l-75.605-25.156c69.841-76.055,188.114-81.093,264.169-11.252s81.093,188.114,11.252,264.169s-188.114,81.093-264.169,11.252c-46.628-42.818-68.422-106.323-57.912-168.75c1.653-9.28-4.529-18.142-13.808-19.796s-18.142,4.529-19.796,13.808c-0.018,0.101-0.035,0.203-0.051,0.304c-2.043,12.222-3.071,24.592-3.072,36.983C8.375,361.408,107.626,460.659,230.101,460.8c122.533,0.331,222.134-98.734,222.465-221.267C452.896,117,353.832,17.399,231.298,17.068z"/>
    </symbol>

    <symbol id="CLOSE" viewBox="0 0 329.26933 329">
        <path stroke="currentColor" d="m194.800781 164.769531 128.210938-128.214843c8.34375-8.339844 8.34375-21.824219 0-30.164063-8.339844-8.339844-21.824219-8.339844-30.164063 0l-128.214844 128.214844-128.210937-128.214844c-8.34375-8.339844-21.824219-8.339844-30.164063 0-8.34375 8.339844-8.34375 21.824219 0 30.164063l128.210938 128.214843-128.210938 128.214844c-8.34375 8.339844-8.34375 21.824219 0 30.164063 4.15625 4.160156 9.621094 6.25 15.082032 6.25 5.460937 0 10.921875-2.089844 15.082031-6.25l128.210937-128.214844 128.214844 128.214844c4.160156 4.160156 9.621094 6.25 15.082032 6.25 5.460937 0 10.921874-2.089844 15.082031-6.25 8.34375-8.339844 8.34375-21.824219 0-30.164063zm0 0"/>
    </symbol>

    <symbol id="MENU" viewBox="0 0 512 512">
        <path stroke="currentColor" d="M492,236H20c-11.046,0-20,8.954-20,20c0,11.046,8.954,20,20,20h472c11.046,0,20-8.954,20-20S503.046,236,492,236z"/>
        <path stroke="currentColor" d="M492,76H20C8.954,76,0,84.954,0,96s8.954,20,20,20h472c11.046,0,20-8.954,20-20S503.046,76,492,76z"/>
        <path stroke="currentColor" d="M492,396H20c-11.046,0-20,8.954-20,20c0,11.046,8.954,20,20,20h472c11.046,0,20-8.954,20-20C512,404.954,503.046,396,492,396z"/>
    </symbol>
</svg>
